<svg xmlns="http://www.w3.org/2000/svg" viewBox="0 0 900 700" role="img" aria-labelledby="title desc">
  <title id="title">Moonlit crypt doorway</title>
  <desc id="desc">A simple gothic placeholder with a dark doorway, pale moon, and gold-brown atmosphere.</desc>
  <defs>
    <radialGradient id="moonGlow" cx="30%" cy="20%" r="45%">
      <stop offset="0%" stop-color="#f0dca2" stop-opacity=".75"/>
      <stop offset="45%" stop-color="#d6b15e" stop-opacity=".18"/>
      <stop offset="100%" stop-color="#090807" stop-opacity="0"/>
    </radialGradient>
    <linearGradient id="ground" x1="0" y1="0" x2="1" y2="1">
      <stop offset="0" stop-color="#15120f"/>
      <stop offset="1" stop-color="#080706"/>
    </linearGradient>
  </defs>
  <rect width="900" height="700" fill="#080706"/>
  <rect width="900" height="700" fill="url(#moonGlow)"/>
  <circle cx="255" cy="145" r="76" fill="#f0dca2" opacity=".82"/>
  <path d="M0 515 C170 465 285 545 470 505 C625 470 740 490 900 445 L900 700 L0 700 Z" fill="url(#ground)"/>
  <path d="M330 610 L330 295 C330 180 570 180 570 295 L570 610 Z" fill="#11100f" stroke="#6d5735" stroke-width="8"/>
  <path d="M385 610 L385 324 C385 252 515 252 515 324 L515 610 Z" fill="#050505" stroke="#3b3327" stroke-width="6"/>
  <path d="M305 610 H595" stroke="#d6b15e" stroke-opacity=".45" stroke-width="5"/>
  <g fill="#bca66b" opacity=".35">
    <circle cx="690" cy="220" r="3"/><circle cx="735" cy="260" r="2"/><circle cx="640" cy="310" r="2.5"/>
    <circle cx="160" cy="320" r="2"/><circle cx="205" cy="365" r="2.5"/>
  </g>
</svg>
